<!DOCTYPE html>
    <svg viewbox= "0 0 100 100" style="border: yellow solid;">
      <g>
      <path stroke="yellow" stroke-width=".2" d="M10 0 V100" />
      <path stroke="yellow" stroke-width=".2" d="M20 0 V100" />
      <path stroke="yellow" stroke-width=".2" d="M30 0 V100" />
      <path stroke="yellow" stroke-width=".2" d="M40 0 V100" />
      <path stroke="yellow" stroke-width=".2" d="M50 0 V100" />
      <path stroke="yellow" stroke-width=".2" d="M60 0 V100" />
      <path stroke="yellow" stroke-width=".2" d="M70 0 V100" />
      <path stroke="yellow" stroke-width=".2" d="M80 0 V100" />
      <path stroke="yellow" stroke-width=".2" d="M90 0 V100" />

      <path stroke="yellow" stroke-width=".2" d="M0 10 H100" />
      <path stroke="yellow" stroke-width=".2" d="M0 20 H100" />
      <path stroke="yellow" stroke-width=".2" d="M0 30 H100" />
      <path stroke="yellow" stroke-width=".2" d="M0 40 H100" />
      <path stroke="yellow" stroke-width=".2" d="M0 50 H100" />
      <path stroke="yellow" stroke-width=".2" d="M0 60 H100" />
      <path stroke="yellow" stroke-width=".2" d="M0 70 H100" />
      <path stroke="yellow" stroke-width=".2" d="M0 80 H100" />
      <path stroke="yellow" stroke-width=".2" d="M0 90 H100" />

      <path stroke="red" stroke-width="1" fill="none" d="M0 90, 20 90" />
      <path stroke="red" stroke-width="1" fill="none" d="M20 90, Q50 -20 80 90" />
      <path stroke="red" stroke-width="1" fill="none" d="M100 90, 80 90" />
    </g>
    </svg>
